# xmcd CD database file
#
# Track frame offsets:
#	150
#	19696
#	37885
#	58477
#	75561
#	97960
#	120260
#	142094
#	159153
#	176053
#	194100
#	210948
#
# Disc length: 3144 seconds
#
# Revision: 0
# Processed by: cddbd v1.5PL3 Copyright (c) Steve Scherf et al.
# Submitted via: CDex 1.51
#
DISCID=9a0c460c
DTITLE=Dan Gibson Solitudes - Morning Has Broken
DYEAR=2002
DGENRE=New Age
TTITLE0=The Sound of Silence
TTITLE1=Close to You
TTITLE2=Sunshine on My Shoulders
TTITLE3=Something
TTITLE4=You've Got a Friend
TTITLE5=Angel of the Morning
TTITLE6=If You Could Read My Mind
TTITLE7=Morning Has Broken
TTITLE8=Turn, Turn, Turn
TTITLE9=I Write the Songs
TTITLE10=Annie's Song
TTITLE11=Dan Gibson Solitudes - Let It Be
EXTD=YEAR: 2002
EXTT0=
EXTT1=
EXTT2=
EXTT3=
EXTT4=
EXTT5=
EXTT6=
EXTT7=
EXTT8=
EXTT9=
EXTT10=
EXTT11=
PLAYORDER=
